<svg width="48" height="30" viewBox="0 0 48 30" fill="none" xmlns="http://www.w3.org/2000/svg">
<path d="M38.5469 11.5332L38.5469 24.6984C38.5469 27.3765 36.1376 29.4108 33.4974 28.9621L10.3917 25.0351C4.84742 24.0928 0.791172 19.289 0.791172 13.6652L0.791172 11.5332C0.791172 5.16371 5.95464 0.000242227 12.3241 0.000242601L27.0139 0.000243464C33.3834 0.000243837 38.5469 5.16372 38.5469 11.5332Z" fill="#7453F0"/>
<circle cx="13.5921" cy="13.9776" r="1.64091" fill="white"/>
<circle cx="19.6702" cy="13.9776" r="1.64091" fill="white"/>
<circle cx="25.7464" cy="13.9776" r="1.64091" fill="white"/>
<path d="M44.1183 6.96167L40.0148 10.8001C39.6068 11.1817 39.3752 11.7154 39.3752 12.274V16.0032C39.3752 16.5783 39.6206 17.1262 40.0498 17.5091L44.1533 21.1706C45.4541 22.3313 47.5153 21.408 47.5153 19.6647V8.43562C47.5153 6.66984 45.4079 5.75543 44.1183 6.96167Z" fill="#7453F0"/>
</svg>
