<svg width="63" height="63" viewBox="0 0 63 63" fill="none" xmlns="http://www.w3.org/2000/svg">
<path d="M11.4802 11.4603H18.3238C23.1705 11.4603 26.7888 15.9205 25.7895 20.6631L20.5646 45.4593C19.8208 48.9892 16.7064 51.5158 13.0989 51.5158H11.4802C7.26648 51.5158 3.85059 48.0999 3.85059 43.8862V19.0899C3.85059 14.8762 7.26647 11.4603 11.4802 11.4603Z" fill="#E52E3D"/>
<circle cx="4.99442" cy="4.97562" r="4.95926" fill="#E52E3D"/>
<path d="M11.4797 51.5155L11.4797 45.6611C11.4797 40.8144 15.9399 37.1961 20.6825 38.1955L45.4787 43.4204C49.0086 44.1642 51.5352 47.2786 51.5352 50.8861L51.5352 51.5155C51.5352 55.7293 48.1193 59.1451 43.9056 59.1451L19.1093 59.1451C14.8956 59.1451 11.4797 55.7293 11.4797 51.5155Z" fill="#F7CC01"/>
<circle cx="4.99442" cy="58.0006" r="4.95926" fill="#F7CC01"/>
<path d="M21.8913 38.4543L38.3012 41.9081L41.9294 24.6959L25.5191 21.242C25.0736 21.1482 24.6365 21.4333 24.5426 21.8787L21.2544 37.4776C21.1605 37.9232 21.4457 38.3605 21.8913 38.4543Z" fill="white"/>
<path d="M51.535 11.4601L51.535 17.3145C51.535 22.1611 47.0748 25.7795 42.3323 24.7801L17.5361 19.5552C14.0061 18.8114 11.4796 15.697 11.4796 12.0895L11.4796 11.4601C11.4796 7.24634 14.8955 3.83044 19.1092 3.83044L43.9054 3.83044C48.1191 3.83044 51.535 7.24633 51.535 11.4601Z" fill="#7453F0"/>
<circle cx="58.0198" cy="4.97488" r="4.95926" fill="#7453F0"/>
<path d="M51.5346 51.5159L45.6802 51.5159C40.8335 51.5159 37.2152 47.0557 38.2145 42.3131L43.4394 17.5169C44.1832 13.987 47.2977 11.4604 50.9051 11.4604L51.5346 11.4604C55.7483 11.4604 59.1642 14.8763 59.1642 19.09L59.1642 43.8863C59.1642 48.1 55.7483 51.5159 51.5346 51.5159Z" fill="#06CBAD"/>
<circle cx="58.0198" cy="58.0011" r="4.95926" fill="#06CBAD"/>
<circle cx="27.8112" cy="30.9299" r="1.02208" transform="rotate(-2.93293 27.8112 30.9299)" fill="#3D3D3D"/>
<circle cx="31.5315" cy="31.763" r="1.02208" transform="rotate(-2.93293 31.5315 31.763)" fill="#3D3D3D"/>
<circle cx="35.2022" cy="32.5981" r="1.02208" transform="rotate(-2.93293 35.2022 32.5981)" fill="#3D3D3D"/>
<path d="M37.6561 45.0401L38.3012 41.9024L32.2876 40.64L36.936 45.2574C37.1771 45.4968 37.5877 45.3729 37.6561 45.0401Z" fill="white"/>
</svg>
