<svg width="20" height="21" viewBox="0 0 20 21" fill="none" xmlns="http://www.w3.org/2000/svg">
<path fill-rule="evenodd" clip-rule="evenodd" d="M3 2.84277C2.73478 2.84277 2.48043 2.94813 2.29289 3.13567C2.10536 3.3232 2 3.57756 2 3.84277V17.8428C2 18.108 2.10536 18.3623 2.29289 18.5499C2.48043 18.7374 2.73478 18.8428 3 18.8428H17C17.2652 18.8428 17.5196 18.7374 17.7071 18.5499C17.8946 18.3623 18 18.108 18 17.8428V12.5798C18 12.3146 18.1054 12.0602 18.2929 11.8727C18.4804 11.6851 18.7348 11.5798 19 11.5798C19.2652 11.5798 19.5196 11.6851 19.7071 11.8727C19.8946 12.0602 20 12.3146 20 12.5798V17.8428C20 18.6384 19.6839 19.4015 19.1213 19.9641C18.5587 20.5267 17.7956 20.8428 17 20.8428H3C2.20435 20.8428 1.44129 20.5267 0.87868 19.9641C0.316071 19.4015 0 18.6384 0 17.8428V3.84277C0 3.04712 0.316071 2.28406 0.87868 1.72145C1.44129 1.15884 2.20435 0.842773 3 0.842773H8.017C8.28222 0.842773 8.53657 0.94813 8.72411 1.13567C8.91164 1.3232 9.017 1.57756 9.017 1.84277C9.017 2.10799 8.91164 2.36234 8.72411 2.54988C8.53657 2.73742 8.28222 2.84277 8.017 2.84277H3Z" fill="#7453F0"/>
<path fill-rule="evenodd" clip-rule="evenodd" d="M19.4111 1.41489C19.5911 1.59541 19.6922 1.83995 19.6922 2.09489C19.6922 2.34983 19.5911 2.59437 19.4111 2.77489L10.6391 11.5609C10.55 11.6501 10.4441 11.7208 10.3276 11.7691C10.2111 11.8174 10.0862 11.8422 9.96011 11.8422C9.834 11.8422 9.70913 11.8174 9.59262 11.7691C9.47612 11.7208 9.37026 11.6501 9.28111 11.5609C9.10109 11.3804 9 11.1358 9 10.8809C9 10.6259 9.10109 10.3814 9.28111 10.2009L18.0541 1.41489C18.2341 1.23505 18.4782 1.13403 18.7326 1.13403C18.9871 1.13403 19.2311 1.23505 19.4111 1.41489Z" fill="#7453F0"/>
<path fill-rule="evenodd" clip-rule="evenodd" d="M19.04 0.842773C19.57 0.842773 20 1.27277 20 1.80477V6.84277C20 7.37377 19.53 7.84277 19 7.84277C18.47 7.84277 18 7.37377 18 6.84277V2.84277H14C13.47 2.84277 13 2.37377 13 1.84277C13 1.31177 13.43 0.842773 13.96 0.842773H19.04Z" fill="#7453F0"/>
</svg>
